<svg viewBox="0 0 96 96" xml:space="preserve" xmlns="http://www.w3.org/2000/svg" enable-background="new 0 0 96 96"><path d="M60 35.11v9.259c2.345 3.942 9.074 6.799 17 6.799s14.655-2.857 17-6.799V35.11c-3.528 3.38-9.819 5.644-17 5.644s-13.472-2.263-17-5.644zM65.701 75.936a24.915 24.915 0 0 1-3.581 6.881c2.9 3.349 8.475 5.612 14.88 5.612 4.694 0 8.944-1.21 12.023-3.18C92.092 83.28 94 81 94 78v-5.648C90.472 75.734 84.181 78 77 78c-4.055 0-7.992-.73-11.299-2.064z" fill="#0090ff" class="fill-000000"></path><path d="M60 47.524v3.153a24.994 24.994 0 0 1 6.143 10.84C69.247 62.845 73.072 63.58 77 63.58c7.926 0 14.655-2.856 17-6.798v-9.258c-3.528 3.38-9.819 5.644-17 5.644s-13.472-2.263-17-5.644z" fill="#0090ff" class="fill-000000"></path><path d="M66.655 63.882c.223 1.34.345 2.715.345 4.118a24.98 24.98 0 0 1-.732 5.998C69.363 75.294 73.117 76 77 76c7.926 0 14.655-2.86 17-6.805v-9.259c-3.528 3.38-9.819 5.644-17 5.644-3.719 0-7.248-.589-10.345-1.698zM89 2.245V2c-6.406 0-11.605 5.126-11.742 11.499h-.516C76.605 7.127 71.406 2 65 2v.245c0 6.234 4.857 11.321 10.991 11.717L76 20h2l-.009-6.038C84.134 13.576 89 8.485 89 2.245zM77.995 20.029l.005 8.47-2 .001-.005-8.471C67.078 20.335 60 24.648 60 29.93v2.026c2.345 3.942 9.074 6.799 17 6.799s14.655-2.857 17-6.799V29.93c0-5.284-7.083-9.598-16.005-9.901zM26.331 21.743a.999.999 0 0 0 1.242.076L45.622 9.185l-.608 3.651 1.973.328 1-6a.999.999 0 0 0-.822-1.15l-6-1-.329 1.973 3.586.598-17.344 12.14-9.409-8.468a1 1 0 0 0-1.287-.043l-14 11 1.235 1.572 13.339-10.48 9.375 8.437zM6 24h2v12H6z" fill="#0090ff" class="fill-000000"></path><path d="M11 21h2v15h-2zM16 17h2v19h-2zM21 21h2v15h-2zM26 24h2v12h-2zM31 23h2v13h-2zM36 19h2v17h-2zM41 15h2v21h-2zM39 42c-14.359 0-26 11.641-26 26s11.641 26 26 26 26-11.641 26-26-11.641-26-26-26zm20.285 13.134 1 1.732-2.598 1.5-1-1.732 2.598-1.5zM38 44h2v7h-2v-7zm-1 27 9-15 5 3-13 20-10-7 3-5 6 4zm-9.134-24.284 1.5 2.598-1.732 1-1.5-2.598 1.732-1zM15 67h5v2h-5v-2zm3.715 13.866-1-1.732 2.598-1.5 1 1.732-2.598 1.5zm1.598-22.5-2.598-1.5 1-1.732 2.598 1.5-1 1.732zm7.553 30.918-1.732-1 1.5-2.598 1.732 1-1.5 2.598zM40 92h-2v-7h2v7zm10.134-2.716-1.5-2.598 1.732-1 1.5 2.598-1.732 1zm.232-38.971-1.732-1 1.5-2.598 1.732 1-1.5 2.598zm8.919 30.553-2.598-1.5 1-1.732 2.598 1.5-1 1.732zM58 69v-2h5v2h-5z" fill="#0090ff" class="fill-000000"></path></svg>