<svg viewBox="0 0 64 64" xmlns="http://www.w3.org/2000/svg"><path d="M11.564 13.35c5.32-.46 8.15 1.45 9.26 2.49a19.236 19.236 0 0 0 8.51 2.06 17.868 17.868 0 0 0 8.7-2.28c1.24-1.05 4.04-2.7 9.02-2.27a1.812 1.812 0 0 0 .32-3.61 16.026 16.026 0 0 0-10.67 2.37l1.97-6.19a2.545 2.545 0 0 0-2.43-3.31h-13.86a2.54 2.54 0 0 0-2.41 3.37l2.14 6.27c-2.03-1.43-5.52-2.98-10.86-2.51a1.812 1.812 0 1 0 .31 3.61Z" fill="#0090ff" class="fill-000000"></path><path d="M52.994 44.24a11.722 11.722 0 0 1-1.103-4.296 11.04 11.04 0 0 1-6.065-19.665 13.798 13.798 0 0 0-5.142-3.07 20.841 20.841 0 0 1-11.23 3.35 22.677 22.677 0 0 1-11.48-3.24c-10.09 3.61-10.97 16.15-10.85 21.61a11.747 11.747 0 0 1-1.15 5.31l-3.25 6.81a7.06 7.06 0 0 0 6.37 10.11h40.78a7.066 7.066 0 0 0 6.38-10.11Zm-21.788 5.737h-.395v3.31a1.5 1.5 0 0 1-3 0v-3.31h-4.384a1.5 1.5 0 1 1 0-3h7.779a2.49 2.49 0 0 0 0-4.98h-3.49a5.79 5.79 0 0 1 0-11.578h.095v-3.664a1.5 1.5 0 0 1 3 0v3.664H34.5a1.5 1.5 0 0 1 0 3h-6.784a2.79 2.79 0 0 0 0 5.579h3.49a5.49 5.49 0 0 1 0 10.98Z" fill="#0090ff" class="fill-000000"></path><path d="M52.7 20.567a8.36 8.36 0 1 0 8.36 8.36 8.36 8.36 0 0 0-8.36-8.36Zm3.48 9.576h-2.145v2.261a1.335 1.335 0 0 1-2.669 0v-2.26h-2.143a1.335 1.335 0 1 1 0-2.67h2.143v-2.026a1.335 1.335 0 1 1 2.67 0v2.026h2.143a1.335 1.335 0 1 1 0 2.67Z" fill="#0090ff" class="fill-000000"></path></svg>