<svg xmlns="http://www.w3.org/2000/svg" viewBox="0 0 1000 2400"><path fill="#f5f5f5" d="M35.806 0h1000v2400h-1000z"/><path fill="#333" d="M50 30h900v60H50z"/><text x="500" y="70" fill="#fff" font-family="Arial" font-size="24" font-weight="bold" text-anchor="middle">TECHROOOT WEBSITE WIREFRAMES</text><path fill="#555" d="M50 120h900v50H50z"/><text x="500" y="152" fill="#fff" font-family="Arial" font-size="20" font-weight="bold" text-anchor="middle">ALL DESKTOP VIEWS</text><text x="200" y="200" fill="#333" font-family="Arial" font-size="18" font-weight="bold" text-anchor="middle">HOME PAGE</text><path d="M50 220h400v300H50z"/><text x="70" y="245" fill="#fff" font-family="Arial" font-size="16" font-weight="bold">TECHROOOT</text><text x="350" y="245" fill="#fff" font-family="Arial" font-size="12" text-anchor="middle">Home | Services | About | Contact</text><path fill="none" stroke="#fff" stroke-width="2" d="M80 270h140v100H80z"/><path stroke="#fff" stroke-width="2" d="M150 300v40M130 320h40"/><text x="300" y="300" fill="#fff" font-family="Arial" font-size="14" text-anchor="middle">Support for African Communities</text><rect width="90" height="30" x="265" y="330" fill="none" stroke="#fff" stroke-width="2" rx="5"/><text x="310" y="350" fill="#3498db" font-family="Arial" font-size="12" text-anchor="middle">Learn More</text><text x="250" y="490" fill="#fff" font-family="Arial" font-size="12" text-anchor="middle">Email | Phone</text><text x="650" y="200" fill="#333" font-family="Arial" font-size="18" font-weight="bold" text-anchor="middle">SERVICES PAGE</text><path d="M500 220h400v300H500z"/><text x="520" y="245" fill="#fff" font-family="Arial" font-size="16" font-weight="bold">TECHROOOT</text><text x="800" y="245" fill="#fff" font-family="Arial" font-size="12" text-anchor="middle">Home | Services | About | Contact</text><text x="700" y="280" fill="#fff" font-family="Arial" font-size="16" font-weight="bold" text-anchor="middle">SERVICES</text><path fill="none" stroke="#fff" stroke-width="2" d="M525 300h70v70h-70z"/><text x="560" y="390" fill="#fff" font-family="Arial" font-size="10" text-anchor="middle">Healthcare</text><text x="560" y="405" fill="#fff" font-family="Arial" font-size="8" text-anchor="middle">Short description</text><path fill="none" stroke="#fff" stroke-width="2" d="M615 300h70v70h-70z"/><text x="650" y="390" fill="#fff" font-family="Arial" font-size="10" text-anchor="middle">Education</text><text x="650" y="405" fill="#fff" font-family="Arial" font-size="8" text-anchor="middle">Short description</text><path fill="none" stroke="#fff" stroke-width="2" d="M705 300h70v70h-70z"/><text x="740" y="390" fill="#fff" font-family="Arial" font-size="10" text-anchor="middle">Agriculture</text><text x="740" y="405" fill="#fff" font-family="Arial" font-size="8" text-anchor="middle">Short description</text><path fill="none" stroke="#fff" stroke-width="2" d="M795 300h70v70h-70z"/><text x="830" y="390" fill="#fff" font-family="Arial" font-size="10" text-anchor="middle">Business Solutions</text><text x="830" y="405" fill="#fff" font-family="Arial" font-size="8" text-anchor="middle">Short description</text><text x="700" y="490" fill="#fff" font-family="Arial" font-size="12" text-anchor="middle">Email | Phone</text><text x="200" y="550" fill="#333" font-family="Arial" font-size="18" font-weight="bold" text-anchor="middle">ABOUT PAGE</text><text x="70" y="595" fill="#fff" font-family="Arial" font-size="16" font-weight="bold">TECHROOOT</text><text x="350" y="595" fill="#fff" font-family="Arial" font-size="12" text-anchor="middle">Home | Services | About | Contact</text><text x="250" y="640" fill="#fff" font-family="Arial" font-size="16" font-weight="bold" text-anchor="middle">ABOUT</text><text x="150" y="680" fill="#fff" font-family="Arial" font-size="12" text-anchor="middle">Short overview of Techrooot&apos;s</text><text x="150" y="695" fill="#fff" font-family="Arial" font-size="12" text-anchor="middle">origins and goals</text><text x="150" y="725" fill="#fff" font-family="Arial" font-size="12" text-anchor="middle">Lorem ipsum dolor sit amet,</text><text x="150" y="740" fill="#fff" font-family="Arial" font-size="12" text-anchor="middle">consectetur adipiscing elit.</text><text x="350" y="680" fill="#fff" font-family="Arial" font-size="12" text-anchor="middle">Mauris et elit ac libero</text><text x="350" y="695" fill="#fff" font-family="Arial" font-size="12" text-anchor="middle">venenatis pellentesque.</text><text x="350" y="725" fill="#fff" font-family="Arial" font-size="12" text-anchor="middle">Etiam vulputate rutrum</text><text x="350" y="740" fill="#fff" font-family="Arial" font-size="12" text-anchor="middle">magna et tempor.</text><text x="250" y="840" fill="#fff" font-family="Arial" font-size="12" text-anchor="middle">Email | Phone</text><text x="650" y="550" fill="#333" font-family="Arial" font-size="18" font-weight="bold" text-anchor="middle">CONTACT PAGE</text><path d="M500 570h400v300H500z"/><text x="520" y="595" fill="#fff" font-family="Arial" font-size="16" font-weight="bold">TECHROOOT</text><text x="800" y="595" fill="#fff" font-family="Arial" font-size="12" text-anchor="middle">Home | Services | About | Contact</text><text x="700" y="640" fill="#fff" font-family="Arial" font-size="16" font-weight="bold" text-anchor="middle">CONTACT</text><path fill="none" stroke="#fff" stroke-width="2" d="M530 670h160v130H530z"/><path fill="none" stroke="#fff" d="M545 690h130v20H545z"/><text x="560" y="705" fill="#fff" font-family="Arial" font-size="10">Email</text><path fill="none" stroke="#fff" d="M545 720h130v20H545z"/><text x="560" y="735" fill="#fff" font-family="Arial" font-size="10">Phone</text><rect width="90" height="25" x="565" y="750" fill="none" stroke="#fff" rx="5"/><text x="610" y="767" fill="#3498db" font-family="Arial" font-size="12" text-anchor="middle">Submit</text><text x="780" y="700" fill="#fff" font-family="Arial" font-size="12" text-anchor="middle">Email: info@techrooot.com</text><text x="780" y="730" fill="#fff" font-family="Arial" font-size="12" text-anchor="middle">Phone: +123-456-7890</text><text x="700" y="840" fill="#fff" font-family="Arial" font-size="12" text-anchor="middle">Email | Phone</text><path fill="#555" d="M50 900h900v50H50z"/><text x="500" y="932" fill="#fff" font-family="Arial" font-size="20" font-weight="bold" text-anchor="middle">ALL MOBILE VIEWS</text><text x="250" y="980" fill="#333" font-family="Arial" font-size="18" font-weight="bold" text-anchor="middle">HOME PAGE - MOBILE</text><path d="M175 1000h150v400H175z"/><text x="250" y="1030" fill="#fff" font-family="Arial" font-size="14" font-weight="bold" text-anchor="middle">TECHROOOT</text><path fill="#fff" d="M300 1025h12v2h-12zM300 1030h12v2h-12zM300 1035h12v2h-12z"/><path fill="none" stroke="#fff" stroke-width="2" d="M195 1080h110v80H195z"/><path stroke="#fff" stroke-width="2" d="M250 1100v40M230 1120h40"/><text x="250" y="1190" fill="#fff" font-family="Arial" font-size="10" text-anchor="middle">Support for African Communities</text><rect width="80" height="30" x="210" y="1220" fill="none" stroke="#fff" stroke-width="2" rx="5"/><text x="250" y="1238" fill="#3498db" font-family="Arial" font-size="10" text-anchor="middle">Learn More</text><text x="250" y="1370" fill="#fff" font-family="Arial" font-size="10" text-anchor="middle">Email | Phone</text><text x="500" y="980" fill="#333" font-family="Arial" font-size="18" font-weight="bold" text-anchor="middle">SERVICES PAGE - MOBILE</text><path d="M425 1000h150v600H425z"/><text x="500" y="1030" fill="#fff" font-family="Arial" font-size="14" font-weight="bold" text-anchor="middle">TECHROOOT</text><path fill="#fff" d="M550 1025h12v2h-12zM550 1030h12v2h-12zM550 1035h12v2h-12z"/><text x="500" y="1070" fill="#fff" font-family="Arial" font-size="12" font-weight="bold" text-anchor="middle">SERVICES</text><path fill="none" stroke="#fff" stroke-width="2" d="M465 1100h70v70h-70z"/><text x="500" y="1190" fill="#fff" font-family="Arial" font-size="10" text-anchor="middle">Healthcare</text><text x="500" y="1205" fill="#fff" font-family="Arial" font-size="8" text-anchor="middle">Short description</text><path fill="none" stroke="#fff" stroke-width="2" d="M465 1240h70v70h-70z"/><text x="500" y="1330" fill="#fff" font-family="Arial" font-size="10" text-anchor="middle">Education</text><text x="500" y="1345" fill="#fff" font-family="Arial" font-size="8" text-anchor="middle">Short description</text><path fill="none" stroke="#fff" stroke-width="2" d="M465 1380h70v70h-70z"/><text x="500" y="1470" fill="#fff" font-family="Arial" font-size="10" text-anchor="middle">Agriculture</text><text x="500" y="1485" fill="#fff" font-family="Arial" font-size="8" text-anchor="middle">Short description</text><path fill="none" stroke="#fff" stroke-width="2" d="M465 1520h70v70h-70z"/><text x="500" y="1610" fill="#fff" font-family="Arial" font-size="10" text-anchor="middle">Business Solutions</text><text x="500" y="1625" fill="#fff" font-family="Arial" font-size="8" text-anchor="middle">Short description</text><text x="500" y="1670" fill="#fff" font-family="Arial" font-size="10" text-anchor="middle">Email | Phone</text><text x="750" y="980" fill="#333" font-family="Arial" font-size="18" font-weight="bold" text-anchor="middle">ABOUT PAGE - MOBILE</text><path d="M675 1000h150v400H675z"/><text x="750" y="1030" fill="#fff" font-family="Arial" font-size="14" font-weight="bold" text-anchor="middle">TECHROOOT</text><path fill="#fff" d="M800 1025h12v2h-12zM800 1030h12v2h-12zM800 1035h12v2h-12z"/><text x="750" y="1070" fill="#fff" font-family="Arial" font-size="12" font-weight="bold" text-anchor="middle">ABOUT</text><text x="750" y="1110" fill="#fff" font-family="Arial" font-size="10" text-anchor="middle">Short overview of Techrooot&apos;s</text><text x="750" y="1125" fill="#fff" font-family="Arial" font-size="10" text-anchor="middle">origins and goals</text><text x="750" y="1155" fill="#fff" font-family="Arial" font-size="10" text-anchor="middle">Lorem ipsum dolor sit amet,</text><text x="750" y="1170" fill="#fff" font-family="Arial" font-size="10" text-anchor="middle">consectetur adipiscing elit.</text><text x="750" y="1200" fill="#fff" font-family="Arial" font-size="10" text-anchor="middle">Mauris et elit ac libero</text><text x="750" y="1215" fill="#fff" font-family="Arial" font-size="10" text-anchor="middle">venenatis pellentesque.</text><text x="750" y="1370" fill="#fff" font-family="Arial" font-size="10" text-anchor="middle">Email | Phone</text><text x="250" y="1700" fill="#333" font-family="Arial" font-size="18" font-weight="bold" text-anchor="middle">CONTACT PAGE - MOBILE</text><path d="M175 1730h150v450H175z"/><text x="250" y="1760" fill="#fff" font-family="Arial" font-size="14" font-weight="bold" text-anchor="middle">TECHROOOT</text><path fill="#fff" d="M300 1755h12v2h-12zM300 1760h12v2h-12zM300 1765h12v2h-12z"/><text x="250" y="1800" fill="#fff" font-family="Arial" font-size="12" font-weight="bold" text-anchor="middle">CONTACT</text><path fill="none" stroke="#fff" stroke-width="2" d="M190 1830h120v150H190z"/><path fill="none" stroke="#fff" d="M200 1850h100v20H200z"/><text x="215" y="1865" fill="#fff" font-family="Arial" font-size="10">Email</text><path fill="none" stroke="#fff" d="M200 1880h100v20H200z"/><text x="215" y="1895" fill="#fff" font-family="Arial" font-size="10">Phone</text><rect width="70" height="25" x="215" y="1910" fill="none" stroke="#fff" rx="5"/><text x="250" y="1927" fill="#3498db" font-family="Arial" font-size="10" text-anchor="middle">Submit</text><text x="250" y="2000" fill="#fff" font-family="Arial" font-size="9" text-anchor="middle">Email: info@techrooot.com</text><text x="250" y="2020" fill="#fff" font-family="Arial" font-size="9" text-anchor="middle">Phone: +123-456-7890</text><text x="250" y="2150" fill="#fff" font-family="Arial" font-size="10" text-anchor="middle">Email | Phone</text></svg>